# Blender v2.90.1 OBJ File: 'Steve.blend'
# www.blender.org
mtllib Steve.mtl
o Cube
v 1.000000 2.125164 -0.834994
v 1.000000 2.431567 1.141396
v 1.000000 4.101554 -1.141396
v 1.000000 4.407957 0.834994
v -1.000000 2.125164 -0.834994
v -1.000000 2.431567 1.141396
v -1.000000 4.101554 -1.141396
v -1.000000 4.407957 0.834994
vt 0.664665 0.500343
vt 0.997253 0.502688
vt 0.997253 0.748607
vt 0.663895 0.748294
vt 0.334035 0.749778
vt 0.667394 0.998677
vt 0.334811 0.998677
vt 0.335691 0.001855
vt 0.664309 0.001855
vt 0.663275 0.248145
vt 0.333198 0.248145
vt -0.001109 0.499612
vt 0.335799 0.502814
vt -0.001109 0.750084
vn 0.0000 -0.1532 -0.9882
vn 0.0000 0.9882 -0.1532
vn -1.0000 0.0000 0.0000
vn 0.0000 0.1532 0.9882
vn 1.0000 0.0000 0.0000
vn 0.0000 -0.9882 0.1532
usemtl Material
s off
f 1/1/1 5/2/1 7/3/1 3/4/1
f 4/5/2 3/4/2 7/6/2 8/7/2
f 8/8/3 7/9/3 5/10/3 6/11/3
f 6/12/4 2/13/4 4/5/4 8/14/4
f 2/13/5 1/1/5 3/4/5 4/5/5
f 6/11/6 5/10/6 1/1/6 2/13/6
