# Blender v2.90.1 OBJ File: ''
# www.blender.org
mtllib mask3.mtl
o pPlane1_Mesh
v 0.000000 0.098845 0.007278
v 0.000000 0.103497 0.003144
v 0.000000 0.106974 0.001515
v 0.000000 0.111382 -0.000193
v 0.000000 0.114471 -0.000658
v 0.000000 0.117171 -0.000581
v 0.000000 0.121734 0.000040
v -0.000000 0.127151 -0.001900
v -0.000000 0.130246 -0.004086
v -0.000000 0.131656 -0.005964
v 0.008985 0.103497 -0.000815
v 0.008985 0.107129 -0.000815
v 0.008985 0.110761 -0.000815
v 0.008985 0.112898 -0.007560
v 0.008985 0.121657 -0.000815
v 0.008985 0.125289 -0.000815
v 0.008985 0.128921 -0.000815
v 0.008985 0.133095 -0.000815
v 0.017079 0.133726 -0.012823
v 0.013921 0.099670 -0.008298
v 0.017079 0.101942 -0.012823
v 0.017079 0.105574 -0.012823
v 0.017079 0.109206 -0.012823
v 0.016899 0.112192 -0.012564
v 0.016277 0.119537 -0.011768
v 0.017079 0.123734 -0.012823
v 0.017079 0.127365 -0.012823
v 0.017079 0.130997 -0.012823
v 0.017891 0.099907 -0.013986
v 0.022480 0.101942 -0.022799
v 0.022480 0.105574 -0.022799
v 0.022480 0.109206 -0.022799
v 0.022577 0.112330 -0.022938
v 0.025576 0.118491 -0.029621
v 0.022884 0.121617 -0.023378
v 0.022480 0.123734 -0.022799
v 0.022480 0.127365 -0.022799
v 0.022480 0.130997 -0.022799
v 0.022480 0.133421 -0.022799
v 0.023624 0.101942 -0.023898
v 0.024118 0.105574 -0.028036
v 0.025394 0.109206 -0.032206
v 0.025576 0.112838 -0.029621
v 0.025576 0.123734 -0.029621
v 0.025576 0.127365 -0.029621
v 0.025576 0.130671 -0.029621
v 0.027435 0.112838 -0.032597
v 0.028158 0.116470 -0.032913
v 0.028880 0.120102 -0.033229
v 0.029602 0.123734 -0.033544
v 0.030686 0.127365 -0.034018
v 0.028211 0.127696 -0.032936
v 0.019012 0.121990 -0.015591
v -0.008985 0.103497 -0.000815
v -0.008985 0.107129 -0.000815
v -0.008985 0.110761 -0.000815
v -0.008985 0.112898 -0.007560
v -0.008985 0.121657 -0.000815
v -0.008985 0.125289 -0.000815
v -0.008985 0.128921 -0.000815
v -0.008985 0.133095 -0.000815
v -0.017079 0.133726 -0.012823
v -0.013921 0.099670 -0.008298
v -0.017079 0.101942 -0.012823
v -0.017079 0.105574 -0.012823
v -0.017079 0.109206 -0.012823
v -0.016899 0.112192 -0.012564
v -0.016277 0.119537 -0.011768
v -0.017079 0.123734 -0.012823
v -0.017079 0.127365 -0.012823
v -0.017079 0.130997 -0.012823
v -0.017891 0.099907 -0.013986
v -0.022480 0.101942 -0.022799
v -0.022480 0.105574 -0.022799
v -0.022480 0.109206 -0.022799
v -0.022577 0.112330 -0.022938
v -0.025576 0.118491 -0.029621
v -0.022884 0.121617 -0.023378
v -0.022480 0.123734 -0.022799
v -0.022480 0.127365 -0.022799
v -0.022480 0.130997 -0.022799
v -0.022480 0.133421 -0.022799
v -0.023624 0.101942 -0.023898
v -0.024118 0.105574 -0.028036
v -0.025394 0.109206 -0.032206
v -0.025576 0.112838 -0.029621
v -0.025576 0.123734 -0.029621
v -0.025576 0.127365 -0.029621
v -0.025576 0.130671 -0.029621
v -0.027435 0.112838 -0.032597
v -0.028158 0.116470 -0.032913
v -0.028880 0.120102 -0.033229
v -0.029602 0.123734 -0.033544
v -0.030686 0.127365 -0.034018
v -0.028211 0.127696 -0.032936
v -0.019012 0.121990 -0.015591
v -0.026894 0.129183 -0.031279
v -0.024028 0.132046 -0.026210
v -0.019780 0.133574 -0.017811
v -0.013032 0.133411 -0.006819
v -0.004492 0.132375 -0.003389
v 0.004492 0.132375 -0.003389
v 0.013032 0.133411 -0.006819
v 0.019780 0.133574 -0.017811
v 0.024028 0.132046 -0.026210
v 0.026894 0.129183 -0.031279
v 0.012631 0.116218 -0.009664
v 0.019738 0.112261 -0.017751
v 0.012942 0.112545 -0.010062
v -0.012631 0.116218 -0.009664
v -0.020948 0.121803 -0.019485
v -0.017644 0.120764 -0.013680
v -0.019738 0.112261 -0.017751
v -0.012942 0.112545 -0.010062
v -0.024077 0.115410 -0.026280
v 0.024077 0.115410 -0.026280
v 0.024230 0.120054 -0.026500
v 0.020948 0.121803 -0.019485
v 0.017644 0.120764 -0.013680
v 0.006961 0.099258 -0.000510
v -0.006961 0.099258 -0.000510
v -0.020186 0.100925 -0.018393
v -0.015906 0.099789 -0.011142
v -0.003480 0.099051 0.003384
v -0.010441 0.099464 -0.004404
v 0.003480 0.099051 0.003384
v 0.010441 0.099464 -0.004404
vt 0.499593 0.380008
vt 0.603965 0.352116
vt 0.500000 0.416084
vt 0.605256 0.389486
vt 0.500000 0.442709
vt 0.646396 0.409134
vt 0.500000 0.460630
vt 0.608649 0.445331
vt 0.500000 0.469484
vt 0.500000 0.480891
vt 0.646396 0.586602
vt 0.500000 0.496860
vt 0.646396 0.605552
vt 0.500000 0.518948
vt 0.646396 0.622588
vt 0.500000 0.534610
vt 0.646396 0.650375
vt 0.573198 0.614923
vt 0.500000 0.569260
vt 0.584853 0.346035
vt 0.679909 0.280718
vt 0.711722 0.270861
vt 0.743536 0.261004
vt 0.772149 0.292638
vt 0.778294 0.330050
vt 0.778294 0.389206
vt 0.707439 0.456971
vt 0.633905 0.452915
vt 0.638894 0.513543
vt 0.697925 0.552082
vt 0.778294 0.598387
vt 0.778294 0.633930
vt 0.778294 0.651604
vt 0.778294 0.669253
vt 0.712345 0.666515
vt 0.780340 0.262058
vt 0.827694 0.276326
vt 0.866297 0.334536
vt 0.866297 0.393692
vt 0.775813 0.461618
vt 0.737098 0.455522
vt 0.763643 0.557012
vt 0.795608 0.555250
vt 0.826592 0.550219
vt 0.845717 0.545543
vt 0.866297 0.593301
vt 0.866297 0.621186
vt 0.866297 0.636945
vt 0.866297 0.657282
vt 0.822296 0.665820
vt 0.868547 0.309435
vt 0.885897 0.338230
vt 0.917028 0.396391
vt 0.916745 0.455915
vt 0.823173 0.500446
vt 0.810435 0.483485
vt 0.839350 0.527900
vt 0.916745 0.602750
vt 0.916745 0.620424
vt 0.916745 0.648730
vt 0.891521 0.651730
vt 0.938911 0.455087
vt 0.956368 0.517093
vt 0.967597 0.576391
vt 0.969888 0.624044
vt 0.972377 0.644144
vt 0.959674 0.650914
vt 0.938209 0.645036
vt 0.355563 0.342050
vt 0.353604 0.380997
vt 0.353604 0.409134
vt 0.375184 0.446276
vt 0.353604 0.586602
vt 0.353604 0.605552
vt 0.353604 0.622588
vt 0.426802 0.603436
vt 0.353604 0.638888
vt 0.221706 0.270894
vt 0.273166 0.268475
vt 0.310328 0.289602
vt 0.347490 0.310729
vt 0.424521 0.359408
vt 0.221706 0.330050
vt 0.221706 0.389206
vt 0.299567 0.456273
vt 0.221166 0.459309
vt 0.286997 0.548651
vt 0.346406 0.511734
vt 0.221706 0.609243
vt 0.221706 0.647970
vt 0.221706 0.659901
vt 0.287655 0.662685
vt 0.221706 0.671167
vt 0.141113 0.286059
vt 0.154960 0.276438
vt 0.180698 0.267413
vt 0.225732 0.261808
vt 0.133703 0.334536
vt 0.133703 0.393692
vt 0.182562 0.474599
vt 0.164147 0.491977
vt 0.133703 0.602873
vt 0.151265 0.550629
vt 0.169109 0.554922
vt 0.198571 0.556903
vt 0.215286 0.556954
vt 0.133703 0.628844
vt 0.133703 0.645241
vt 0.177704 0.670926
vt 0.133703 0.661111
vt 0.072589 0.383748
vt 0.116156 0.307040
vt 0.060943 0.407075
vt 0.083255 0.455915
vt 0.148762 0.510236
vt 0.136999 0.545432
vt 0.083255 0.602750
vt 0.083255 0.620424
vt 0.083255 0.646815
vt 0.108479 0.656197
vt 0.042939 0.456382
vt 0.026592 0.514372
vt 0.015476 0.573452
vt 0.007847 0.632750
vt 0.012771 0.654295
vt 0.061791 0.648865
vt 0.035221 0.646447
vn -0.1600 0.6976 0.6984
vn 0.6783 0.0974 0.7283
vn 0.3225 0.4830 0.8141
vn 0.5618 0.1869 0.8059
vn -0.0000 0.2160 0.9764
vn 0.4717 0.4674 0.7477
vn 0.0000 0.5334 0.8458
vn 0.5854 0.2996 0.7533
vn 0.5233 0.2886 0.8018
vn -0.0000 -0.3880 0.9217
vn 0.4658 -0.1438 0.8731
vn 0.0469 -0.1415 0.9888
vn 0.4514 0.2539 0.8555
vn 0.0035 0.2653 0.9642
vn 0.3617 0.3958 0.8441
vn -0.0000 0.3148 0.9492
vn 0.1280 0.1073 0.9860
vn -0.4075 0.2911 0.8656
vn 0.6957 -0.4184 0.5839
vn 0.7601 -0.2170 0.6125
vn 0.7840 -0.2031 0.5865
vn 0.8393 0.0086 0.5436
vn 0.8550 -0.0058 0.5186
vn 0.8339 0.1435 0.5330
vn 0.7767 0.3664 0.5123
vn 0.6035 0.6338 0.4837
vn 0.7116 -0.4287 0.5567
vn 0.8322 -0.0950 0.5462
vn 0.8502 0.0186 0.5262
vn 0.8549 -0.0065 0.5187
vn 0.8550 -0.0037 0.5186
vn 0.8506 0.0001 0.5258
vn 0.8292 0.0000 0.5590
vn 0.8568 0.0484 0.5133
vn 0.9038 0.0666 0.4227
vn 0.9046 0.0256 0.4255
vn 0.9160 -0.0500 0.3980
vn 0.9129 -0.0660 0.4029
vn 0.8783 0.0026 0.4782
vn 0.8641 0.0925 0.4947
vn 0.9003 0.0439 0.4330
vn 0.8912 0.0275 0.4529
vn 0.8955 -0.0075 0.4449
vn 0.8955 -0.0120 0.4449
vn 0.8995 -0.0060 0.4368
vn 0.8794 -0.0000 0.4761
vn 0.9032 0.1644 0.3965
vn 0.9513 0.0263 0.3070
vn 0.8961 -0.2267 0.3816
vn 0.8893 -0.0934 0.4476
vn 0.8441 -0.0285 0.5355
vn 0.9123 0.0000 0.4094
vn 0.9158 0.0187 0.4012
vn 0.8207 -0.0019 0.5714
vn 0.8092 0.1014 0.5787
vn 0.8483 0.1325 0.5127
vn 0.9106 -0.0000 0.4133
vn 0.7858 -0.2196 0.5781
vn 0.7926 -0.0707 0.6057
vn 0.7252 -0.0562 0.6862
vn 0.6933 -0.0448 0.7193
vn 0.6716 0.0153 0.7408
vn 0.7278 0.3140 0.6097
vn -0.3764 0.5433 0.7505
vn -0.3225 0.4830 0.8141
vn -0.7164 0.0798 0.6931
vn -0.5595 0.1865 0.8076
vn -0.4715 0.4672 0.7479
vn -0.5233 0.2886 0.8018
vn -0.5854 0.2996 0.7533
vn -0.4640 -0.1467 0.8736
vn -0.4677 0.2491 0.8481
vn -0.3797 0.3913 0.8383
vn 0.4075 0.2911 0.8656
vn -0.1280 0.1073 0.9860
vn -0.8410 0.0166 0.5408
vn -0.7840 -0.2031 0.5865
vn -0.7601 -0.2170 0.6125
vn -0.8547 -0.0057 0.5191
vn -0.8338 0.1447 0.5328
vn -0.6035 0.6338 0.4837
vn -0.7767 0.3664 0.5123
vn -0.8322 -0.0950 0.5462
vn -0.7116 -0.4287 0.5567
vn -0.8494 0.0205 0.5273
vn -0.8546 -0.0064 0.5192
vn -0.8548 -0.0037 0.5190
vn -0.8292 0.0000 0.5590
vn -0.8506 0.0001 0.5258
vn -0.9038 0.0666 0.4227
vn -0.8568 0.0484 0.5133
vn -0.9046 0.0256 0.4255
vn -0.9160 -0.0500 0.3980
vn -0.8783 0.0026 0.4782
vn -0.9129 -0.0660 0.4029
vn -0.8914 0.0274 0.4523
vn -0.9003 0.0439 0.4330
vn -0.8641 0.0925 0.4947
vn -0.8955 -0.0074 0.4449
vn -0.8955 -0.0120 0.4449
vn -0.8794 -0.0000 0.4761
vn -0.8995 -0.0060 0.4368
vn -0.9513 0.0263 0.3070
vn -0.9032 0.1644 0.3965
vn -0.8961 -0.2267 0.3816
vn -0.8844 -0.0935 0.4573
vn -0.9123 0.0000 0.4094
vn -0.8441 -0.0285 0.5355
vn -0.8207 -0.0019 0.5714
vn -0.8093 0.1016 0.5786
vn -0.8483 0.1325 0.5127
vn -0.9106 -0.0000 0.4133
vn -0.7858 -0.2196 0.5781
vn -0.7926 -0.0707 0.6057
vn -0.7252 -0.0562 0.6862
vn -0.6933 -0.0448 0.7193
vn -0.6716 0.0153 0.7408
vn -0.7278 0.3140 0.6097
usemtl lambert2
s 1
f 1/1/1 11/2/2 2/3/3
f 2/3/3 11/2/2 12/4/4 3/5/5
f 3/5/5 12/4/4 13/6/6 4/7/7
f 4/7/7 13/6/6 14/8/8 5/9/9
f 5/9/9 14/8/8 6/10/10
f 6/10/10 14/8/8 15/11/11 7/12/12
f 7/12/12 15/11/11 16/13/13 8/14/14
f 8/14/14 16/13/13 17/15/15 9/16/16
f 9/16/16 17/15/15 18/17/17 102/18/18 10/19/18
f 1/1/19 126/20/20 120/21/20 127/22/20 20/23/21 21/24/22 11/2/2
f 11/2/2 21/24/22 22/25/23 12/4/4
f 12/4/4 22/25/23 23/26/24 13/6/6
f 13/6/6 23/26/24 24/27/25 109/28/26 14/8/8
f 14/8/8 107/29/27 25/30/28 15/11/11
f 15/11/11 25/30/28 26/31/29 16/13/13
f 16/13/13 26/31/29 27/32/30 17/15/15
f 17/15/15 27/32/30 28/33/31 18/17/17
f 18/17/17 28/33/31 19/34/32 103/35/33
f 20/23/21 29/36/34 30/37/35 21/24/22
f 21/24/22 30/37/35 31/38/36 22/25/23
f 22/25/23 31/38/36 32/39/37 23/26/24
f 23/26/24 32/39/37 33/40/38 108/41/39 24/27/25
f 25/30/28 119/42/40 53/43/40 118/44/40 35/45/41 36/46/42 26/31/29
f 26/31/29 36/46/42 37/47/43 27/32/30
f 27/32/30 37/47/43 38/48/44 28/33/31
f 28/33/31 38/48/44 39/49/45 104/50/46 19/34/32
f 30/37/35 40/51/47 41/52/48 31/38/36
f 31/38/36 41/52/48 42/53/49 32/39/37
f 32/39/37 42/53/49 43/54/50 33/40/38
f 33/40/38 43/54/50 34/55/51 116/56/52
f 35/45/41 117/57/53 34/55/51 44/58/54 36/46/42
f 36/46/42 44/58/54 45/59/55 37/47/43
f 37/47/43 45/59/55 46/60/56 38/48/44
f 38/48/44 46/60/56 105/61/57 39/49/45
f 42/53/49 47/62/58 43/54/50
f 43/54/50 47/62/58 48/63/59 34/55/51
f 34/55/51 48/63/59 49/64/60
f 34/55/51 49/64/60 50/65/61 44/58/54
f 44/58/54 50/65/61 51/66/62 45/59/55
f 45/59/55 51/66/62 52/67/63 106/68/63 46/60/56
f 1/1/64 2/3/65 54/69/66
f 2/3/65 3/5/5 55/70/67 54/69/66
f 3/5/5 4/7/7 56/71/68 55/70/67
f 4/7/7 5/9/69 57/72/70 56/71/68
f 5/9/69 6/10/10 57/72/70
f 6/10/10 7/12/12 58/73/71 57/72/70
f 7/12/12 8/14/14 59/74/72 58/73/71
f 8/14/14 9/16/16 60/75/73 59/74/72
f 9/16/16 10/19/74 101/76/74 61/77/75 60/75/73
f 1/1/64 54/69/66 64/78/76 63/79/77 125/80/78 121/81/78 124/82/78
f 54/69/66 55/70/67 65/83/79 64/78/76
f 55/70/67 56/71/68 66/84/80 65/83/79
f 56/71/68 57/72/70 114/85/81 67/86/82 66/84/80
f 57/72/70 58/73/71 68/87/83 110/88/84
f 58/73/71 59/74/72 69/89/85 68/87/83
f 59/74/72 60/75/73 70/90/86 69/89/85
f 60/75/73 61/77/75 71/91/87 70/90/86
f 61/77/75 100/92/88 62/93/89 71/91/87
f 63/79/77 64/78/76 73/94/90 122/95/91 72/96/91 123/97/91
f 64/78/76 65/83/79 74/98/92 73/94/90
f 65/83/79 66/84/80 75/99/93 74/98/92
f 66/84/80 67/86/82 113/100/94 76/101/95 75/99/93
f 68/87/83 69/89/85 79/102/96 78/103/97 111/104/98 96/105/98 112/106/98
f 69/89/85 70/90/86 80/107/99 79/102/96
f 70/90/86 71/91/87 81/108/100 80/107/99
f 71/91/87 62/93/89 99/109/101 82/110/102 81/108/100
f 73/94/90 74/98/92 84/111/103 83/112/104
f 74/98/92 75/99/93 85/113/105 84/111/103
f 75/99/93 76/101/95 86/114/106 85/113/105
f 76/101/95 115/115/107 77/116/108 86/114/106
f 78/103/97 79/102/96 87/117/109 77/116/108
f 79/102/96 80/107/99 88/118/110 87/117/109
f 80/107/99 81/108/100 89/119/111 88/118/110
f 81/108/100 82/110/102 98/120/112 89/119/111
f 85/113/105 86/114/106 90/121/113
f 86/114/106 77/116/108 91/122/114 90/121/113
f 77/116/108 92/123/115 91/122/114
f 77/116/108 87/117/109 93/124/116 92/123/115
f 87/117/109 88/118/110 94/125/117 93/124/116
f 88/118/110 89/119/111 97/126/118 95/127/118 94/125/117
