# This file uses centimeters as units for non-parametric coordinates.

mtllib mask.mtl
g default
v 0.000000 0.410177 0.030202
v 0.000000 0.429482 0.013047
v 0.000000 0.443910 0.006287
v 0.000000 0.462202 -0.000801
v 0.000000 0.475021 -0.002731
v 0.000000 0.486225 -0.002411
v 0.000000 0.505160 0.000166
v 0.000000 0.527639 -0.007884
v 0.000000 0.540482 -0.016956
v 0.000000 0.546333 -0.024749
v 0.037285 0.429482 -0.003382
v 0.037285 0.444553 -0.003382
v 0.037285 0.459625 -0.003382
v 0.037285 0.468493 -0.031372
v 0.037285 0.504840 -0.003382
v 0.037285 0.519912 -0.003382
v 0.037285 0.534984 -0.003382
v 0.037285 0.552305 -0.003382
v 0.070873 0.554923 -0.053212
v 0.057768 0.413601 -0.034434
v 0.070873 0.423029 -0.053212
v 0.070873 0.438101 -0.053212
v 0.070873 0.453172 -0.053212
v 0.070126 0.465563 -0.052137
v 0.067545 0.496043 -0.048834
v 0.070873 0.513459 -0.053212
v 0.070873 0.528527 -0.053212
v 0.070873 0.543598 -0.053212
v 0.074242 0.414584 -0.058038
v 0.093285 0.423029 -0.094609
v 0.093285 0.438101 -0.094609
v 0.093285 0.453172 -0.094609
v 0.093688 0.466136 -0.095186
v 0.106133 0.491702 -0.122918
v 0.094962 0.504674 -0.097012
v 0.093285 0.513459 -0.094609
v 0.093285 0.528527 -0.094609
v 0.093285 0.543598 -0.094609
v 0.093285 0.553657 -0.094609
v 0.098033 0.423029 -0.099170
v 0.100083 0.438101 -0.116341
v 0.105378 0.453172 -0.133645
v 0.106133 0.468244 -0.122918
v 0.106133 0.513459 -0.122918
v 0.106133 0.528527 -0.122918
v 0.106133 0.542246 -0.122918
v 0.113847 0.468244 -0.135268
v 0.116847 0.483316 -0.136579
v 0.119843 0.498388 -0.137890
v 0.122839 0.513459 -0.139198
v 0.127338 0.528527 -0.141165
v 0.117067 0.529900 -0.136675
v 0.078894 0.506222 -0.064698
v -0.037285 0.429482 -0.003382
v -0.037285 0.444553 -0.003382
v -0.037285 0.459625 -0.003382
v -0.037285 0.468493 -0.031372
v -0.037285 0.504840 -0.003382
v -0.037285 0.519912 -0.003382
v -0.037285 0.534984 -0.003382
v -0.037285 0.552305 -0.003382
v -0.070873 0.554923 -0.053212
v -0.057768 0.413601 -0.034434
v -0.070873 0.423029 -0.053212
v -0.070873 0.438101 -0.053212
v -0.070873 0.453172 -0.053212
v -0.070126 0.465563 -0.052137
v -0.067545 0.496043 -0.048834
v -0.070873 0.513459 -0.053212
v -0.070873 0.528527 -0.053212
v -0.070873 0.543598 -0.053212
v -0.074242 0.414584 -0.058038
v -0.093285 0.423029 -0.094609
v -0.093285 0.438101 -0.094609
v -0.093285 0.453172 -0.094609
v -0.093688 0.466136 -0.095186
v -0.106133 0.491702 -0.122918
v -0.094962 0.504674 -0.097012
v -0.093285 0.513459 -0.094609
v -0.093285 0.528527 -0.094609
v -0.093285 0.543598 -0.094609
v -0.093285 0.553657 -0.094609
v -0.098033 0.423029 -0.099170
v -0.100083 0.438101 -0.116341
v -0.105378 0.453172 -0.133645
v -0.106133 0.468244 -0.122918
v -0.106133 0.513459 -0.122918
v -0.106133 0.528527 -0.122918
v -0.106133 0.542246 -0.122918
v -0.113847 0.468244 -0.135268
v -0.116847 0.483316 -0.136579
v -0.119843 0.498388 -0.137890
v -0.122839 0.513459 -0.139198
v -0.127338 0.528527 -0.141165
v -0.117067 0.529900 -0.136675
v -0.078894 0.506222 -0.064698
v -0.111602 0.536071 -0.129799
v -0.099709 0.547952 -0.108764
v -0.082081 0.554292 -0.073910
v -0.054079 0.553616 -0.028297
v -0.018640 0.549317 -0.014063
v 0.018640 0.549317 -0.014063
v 0.054079 0.553616 -0.028297
v 0.082081 0.554292 -0.073910
v 0.099709 0.547952 -0.108764
v 0.111602 0.536071 -0.129799
v 0.052415 0.482270 -0.040103
v 0.081907 0.465850 -0.073661
v 0.053705 0.467028 -0.041754
v -0.052415 0.482270 -0.040103
v -0.086928 0.505446 -0.080857
v -0.073217 0.501135 -0.056768
v -0.081907 0.465850 -0.073661
v -0.053705 0.467028 -0.041754
v -0.099912 0.478917 -0.109054
v 0.099912 0.478917 -0.109054
v 0.100547 0.498188 -0.109967
v 0.086928 0.505446 -0.080857
v 0.073217 0.501135 -0.056768
v 0.028886 0.411891 -0.002116
v -0.028886 0.411891 -0.002116
v -0.083766 0.418809 -0.076325
v -0.066005 0.414095 -0.046236
v -0.014441 0.411032 0.014043
v -0.043327 0.412746 -0.018275
v 0.014441 0.411032 0.014043
v 0.043327 0.412746 -0.018275
vt 0.499593 0.380008
vt 0.603965 0.352116
vt 0.500000 0.416084
vt 0.605256 0.389486
vt 0.500000 0.442709
vt 0.646396 0.409134
vt 0.500000 0.460630
vt 0.608649 0.445331
vt 0.500000 0.469484
vt 0.500000 0.480891
vt 0.646396 0.586602
vt 0.500000 0.496860
vt 0.646396 0.605552
vt 0.500000 0.518948
vt 0.646396 0.622588
vt 0.500000 0.534610
vt 0.646396 0.650375
vt 0.573198 0.614923
vt 0.500000 0.569260
vt 0.584853 0.346035
vt 0.679909 0.280718
vt 0.711722 0.270861
vt 0.743536 0.261004
vt 0.772149 0.292638
vt 0.778294 0.330050
vt 0.778294 0.389206
vt 0.707439 0.456971
vt 0.633905 0.452915
vt 0.638894 0.513543
vt 0.697925 0.552082
vt 0.778294 0.598387
vt 0.778294 0.633930
vt 0.778294 0.651604
vt 0.778294 0.669253
vt 0.712345 0.666515
vt 0.780340 0.262058
vt 0.827694 0.276326
vt 0.866297 0.334536
vt 0.866297 0.393692
vt 0.775813 0.461618
vt 0.737098 0.455522
vt 0.763643 0.557012
vt 0.795608 0.555250
vt 0.826592 0.550219
vt 0.845717 0.545543
vt 0.866297 0.593301
vt 0.866297 0.621186
vt 0.866297 0.636945
vt 0.866297 0.657282
vt 0.822296 0.665820
vt 0.868547 0.309435
vt 0.885897 0.338230
vt 0.917028 0.396391
vt 0.916745 0.455915
vt 0.823173 0.500446
vt 0.810435 0.483485
vt 0.839350 0.527900
vt 0.916745 0.602750
vt 0.916745 0.620424
vt 0.916745 0.648730
vt 0.891521 0.651730
vt 0.938911 0.455087
vt 0.956368 0.517093
vt 0.967597 0.576391
vt 0.969888 0.624044
vt 0.972377 0.644144
vt 0.959674 0.650914
vt 0.938209 0.645036
vt 0.355563 0.342050
vt 0.353604 0.380997
vt 0.353604 0.409134
vt 0.375184 0.446276
vt 0.353604 0.586602
vt 0.353604 0.605552
vt 0.353604 0.622588
vt 0.426802 0.603436
vt 0.353604 0.638888
vt 0.221706 0.270894
vt 0.273166 0.268475
vt 0.310328 0.289602
vt 0.347490 0.310729
vt 0.424521 0.359408
vt 0.221706 0.330050
vt 0.221706 0.389206
vt 0.299567 0.456273
vt 0.221166 0.459309
vt 0.286997 0.548651
vt 0.346406 0.511734
vt 0.221706 0.609243
vt 0.221706 0.647970
vt 0.221706 0.659901
vt 0.287655 0.662685
vt 0.221706 0.671167
vt 0.141113 0.286059
vt 0.154960 0.276438
vt 0.180698 0.267413
vt 0.225732 0.261808
vt 0.133703 0.334536
vt 0.133703 0.393692
vt 0.182562 0.474599
vt 0.164147 0.491977
vt 0.133703 0.602873
vt 0.151265 0.550629
vt 0.169109 0.554922
vt 0.198571 0.556903
vt 0.215286 0.556954
vt 0.133703 0.628844
vt 0.133703 0.645241
vt 0.177704 0.670926
vt 0.133703 0.661111
vt 0.072589 0.383748
vt 0.116156 0.307040
vt 0.060943 0.407075
vt 0.083255 0.455915
vt 0.148762 0.510236
vt 0.136999 0.545432
vt 0.083255 0.602750
vt 0.083255 0.620424
vt 0.083255 0.646815
vt 0.108479 0.656197
vt 0.042939 0.456382
vt 0.026592 0.514372
vt 0.015476 0.573452
vt 0.007847 0.632750
vt 0.012771 0.654295
vt 0.061791 0.648865
vt 0.035221 0.646447
vn -0.159999 0.697597 0.698397
vn 0.678301 0.097400 0.728301
vn 0.322491 0.482987 0.814078
vn 0.322491 0.482987 0.814078
vn 0.678301 0.097400 0.728301
vn 0.561793 0.186898 0.805890
vn 0.000000 0.215999 0.976394
vn 0.000000 0.215999 0.976394
vn 0.561793 0.186898 0.805890
vn 0.471696 0.467396 0.747693
vn 0.000000 0.533428 0.845845
vn 0.000000 0.533428 0.845845
vn 0.471696 0.467396 0.747693
vn 0.585425 0.299613 0.753332
vn 0.523296 0.288598 0.801794
vn 0.523296 0.288598 0.801794
vn 0.585425 0.299613 0.753332
vn 0.000000 -0.387985 0.921665
vn 0.000000 -0.387985 0.921665
vn 0.585425 0.299613 0.753332
vn 0.465811 -0.143803 0.873121
vn 0.046901 -0.141504 0.988826
vn 0.046901 -0.141504 0.988826
vn 0.465811 -0.143803 0.873121
vn 0.451376 0.253886 0.855454
vn 0.003500 0.265290 0.964162
vn 0.003500 0.265290 0.964162
vn 0.451376 0.253886 0.855454
vn 0.361702 0.395802 0.844105
vn 0.000000 0.314787 0.949162
vn 0.000000 0.314787 0.949162
vn 0.361702 0.395802 0.844105
vn 0.127994 0.107295 0.985954
vn -0.407488 0.291091 0.865575
vn -0.407488 0.291091 0.865575
vn 0.695701 -0.418401 0.583901
vn 0.760101 -0.217000 0.612501
vn 0.760101 -0.217000 0.612501
vn 0.760101 -0.217000 0.612501
vn 0.784044 -0.203111 0.586533
vn 0.839300 0.008600 0.543600
vn 0.678301 0.097400 0.728301
vn 0.678301 0.097400 0.728301
vn 0.839300 0.008600 0.543600
vn 0.854998 -0.005800 0.518599
vn 0.561793 0.186898 0.805890
vn 0.561793 0.186898 0.805890
vn 0.854998 -0.005800 0.518599
vn 0.833871 0.143495 0.532981
vn 0.471696 0.467396 0.747693
vn 0.471696 0.467396 0.747693
vn 0.833871 0.143495 0.532981
vn 0.776714 0.366407 0.512309
vn 0.603536 0.633838 0.483729
vn 0.585425 0.299613 0.753332
vn 0.585425 0.299613 0.753332
vn 0.711574 -0.428684 0.556680
vn 0.832235 -0.095004 0.546223
vn 0.465811 -0.143803 0.873121
vn 0.465811 -0.143803 0.873121
vn 0.832235 -0.095004 0.546223
vn 0.850169 0.018599 0.526181
vn 0.451376 0.253886 0.855454
vn 0.451376 0.253886 0.855454
vn 0.850169 0.018599 0.526181
vn 0.854923 -0.006500 0.518714
vn 0.361702 0.395802 0.844105
vn 0.361702 0.395802 0.844105
vn 0.854923 -0.006500 0.518714
vn 0.855007 -0.003700 0.518604
vn 0.127994 0.107295 0.985954
vn 0.127994 0.107295 0.985954
vn 0.855007 -0.003700 0.518604
vn 0.850606 0.000100 0.525804
vn 0.829178 0.000000 0.558985
vn 0.784044 -0.203111 0.586533
vn 0.856832 0.048402 0.513319
vn 0.903816 0.066601 0.422707
vn 0.839300 0.008600 0.543600
vn 0.839300 0.008600 0.543600
vn 0.903816 0.066601 0.422707
vn 0.904597 0.025600 0.425499
vn 0.854998 -0.005800 0.518599
vn 0.854998 -0.005800 0.518599
vn 0.904597 0.025600 0.425499
vn 0.916018 -0.050001 0.398008
vn 0.833871 0.143495 0.532981
vn 0.833871 0.143495 0.532981
vn 0.916018 -0.050001 0.398008
vn 0.912868 -0.065998 0.402886
vn 0.878259 0.002600 0.478178
vn 0.776714 0.366407 0.512309
vn 0.832235 -0.095004 0.546223
vn 0.864120 0.092502 0.494712
vn 0.864120 0.092502 0.494712
vn 0.864120 0.092502 0.494712
vn 0.900320 0.043901 0.433009
vn 0.891150 0.027498 0.452875
vn 0.850169 0.018599 0.526181
vn 0.850169 0.018599 0.526181
vn 0.891150 0.027498 0.452875
vn 0.895539 -0.007500 0.444919
vn 0.854923 -0.006500 0.518714
vn 0.854923 -0.006500 0.518714
vn 0.895539 -0.007500 0.444919
vn 0.895500 -0.012000 0.444900
vn 0.855007 -0.003700 0.518604
vn 0.855007 -0.003700 0.518604
vn 0.895500 -0.012000 0.444900
vn 0.899531 -0.006000 0.436815
vn 0.879393 -0.000000 0.476096
vn 0.850606 0.000100 0.525804
vn 0.903816 0.066601 0.422707
vn 0.903196 0.164399 0.396498
vn 0.951342 0.026301 0.307013
vn 0.904597 0.025600 0.425499
vn 0.904597 0.025600 0.425499
vn 0.951342 0.026301 0.307013
vn 0.896097 -0.226699 0.381599
vn 0.916018 -0.050001 0.398008
vn 0.916018 -0.050001 0.398008
vn 0.896097 -0.226699 0.381599
vn 0.889334 -0.093404 0.447617
vn 0.912868 -0.065998 0.402886
vn 0.912868 -0.065998 0.402886
vn 0.889334 -0.093404 0.447617
vn 0.844067 -0.028499 0.535479
vn 0.912346 0.000000 0.409420
vn 0.900320 0.043901 0.433009
vn 0.915800 0.018700 0.401200
vn 0.844067 -0.028499 0.535479
vn 0.820679 -0.001900 0.571386
vn 0.891150 0.027498 0.452875
vn 0.891150 0.027498 0.452875
vn 0.820679 -0.001900 0.571386
vn 0.809208 0.101401 0.578706
vn 0.895539 -0.007500 0.444919
vn 0.895539 -0.007500 0.444919
vn 0.809208 0.101401 0.578706
vn 0.848287 0.132498 0.512692
vn 0.895500 -0.012000 0.444900
vn 0.895500 -0.012000 0.444900
vn 0.848287 0.132498 0.512692
vn 0.910596 -0.000000 0.413298
vn 0.899531 -0.006000 0.436815
vn 0.896097 -0.226699 0.381599
vn 0.785837 -0.219610 0.578127
vn 0.889334 -0.093404 0.447617
vn 0.889334 -0.093404 0.447617
vn 0.785837 -0.219610 0.578127
vn 0.792566 -0.070697 0.605674
vn 0.844067 -0.028499 0.535479
vn 0.844067 -0.028499 0.535479
vn 0.792566 -0.070697 0.605674
vn 0.725220 -0.056202 0.686219
vn 0.844067 -0.028499 0.535479
vn 0.725220 -0.056202 0.686219
vn 0.693278 -0.044799 0.719277
vn 0.820679 -0.001900 0.571386
vn 0.820679 -0.001900 0.571386
vn 0.693278 -0.044799 0.719277
vn 0.671578 0.015299 0.740776
vn 0.809208 0.101401 0.578706
vn 0.809208 0.101401 0.578706
vn 0.671578 0.015299 0.740776
vn 0.727792 0.313996 0.609693
vn 0.727792 0.313996 0.609693
vn 0.848287 0.132498 0.512692
vn -0.376381 0.543272 0.750462
vn -0.322491 0.482987 0.814078
vn -0.716406 0.079801 0.693105
vn -0.322491 0.482987 0.814078
vn 0.000000 0.215999 0.976394
vn -0.559489 0.186496 0.807584
vn -0.716406 0.079801 0.693105
vn 0.000000 0.215999 0.976394
vn 0.000000 0.533428 0.845845
vn -0.471514 0.467213 0.747921
vn -0.559489 0.186496 0.807584
vn 0.000000 0.533428 0.845845
vn -0.523296 0.288598 0.801794
vn -0.585425 0.299613 0.753332
vn -0.471514 0.467213 0.747921
vn -0.523296 0.288598 0.801794
vn 0.000000 -0.387985 0.921665
vn -0.585425 0.299613 0.753332
vn 0.000000 -0.387985 0.921665
vn 0.046901 -0.141504 0.988826
vn -0.464001 -0.146700 0.873603
vn -0.585425 0.299613 0.753332
vn 0.046901 -0.141504 0.988826
vn 0.003500 0.265290 0.964162
vn -0.467684 0.249092 0.848071
vn -0.464001 -0.146700 0.873603
vn 0.003500 0.265290 0.964162
vn 0.000000 0.314787 0.949162
vn -0.379693 0.391293 0.838286
vn -0.467684 0.249092 0.848071
vn 0.000000 0.314787 0.949162
vn 0.407488 0.291091 0.865575
vn 0.407488 0.291091 0.865575
vn -0.127994 0.107295 0.985954
vn -0.379693 0.391293 0.838286
vn -0.376381 0.543272 0.750462
vn -0.716406 0.079801 0.693105
vn -0.840991 0.016600 0.540794
vn -0.784044 -0.203111 0.586533
vn -0.760101 -0.217000 0.612501
vn -0.760101 -0.217000 0.612501
vn -0.760101 -0.217000 0.612501
vn -0.716406 0.079801 0.693105
vn -0.559489 0.186496 0.807584
vn -0.854696 -0.005700 0.519098
vn -0.840991 0.016600 0.540794
vn -0.559489 0.186496 0.807584
vn -0.471514 0.467213 0.747921
vn -0.833785 0.144697 0.532790
vn -0.854696 -0.005700 0.519098
vn -0.471514 0.467213 0.747921
vn -0.585425 0.299613 0.753332
vn -0.603536 0.633838 0.483729
vn -0.776714 0.366407 0.512309
vn -0.833785 0.144697 0.532790
vn -0.585425 0.299613 0.753332
vn -0.464001 -0.146700 0.873603
vn -0.832235 -0.095004 0.546223
vn -0.711574 -0.428684 0.556680
vn -0.464001 -0.146700 0.873603
vn -0.467684 0.249092 0.848071
vn -0.849423 0.020501 0.527314
vn -0.832235 -0.095004 0.546223
vn -0.467684 0.249092 0.848071
vn -0.379693 0.391293 0.838286
vn -0.854621 -0.006400 0.519213
vn -0.849423 0.020501 0.527314
vn -0.379693 0.391293 0.838286
vn -0.127994 0.107295 0.985954
vn -0.854775 -0.003700 0.518985
vn -0.854621 -0.006400 0.519213
vn -0.127994 0.107295 0.985954
vn -0.829178 0.000000 0.558985
vn -0.850606 0.000100 0.525804
vn -0.854775 -0.003700 0.518985
vn -0.784044 -0.203111 0.586533
vn -0.840991 0.016600 0.540794
vn -0.903816 0.066601 0.422707
vn -0.856832 0.048402 0.513319
vn -0.856832 0.048402 0.513319
vn -0.856832 0.048402 0.513319
vn -0.840991 0.016600 0.540794
vn -0.854696 -0.005700 0.519098
vn -0.904597 0.025600 0.425499
vn -0.903816 0.066601 0.422707
vn -0.854696 -0.005700 0.519098
vn -0.833785 0.144697 0.532790
vn -0.916018 -0.050001 0.398008
vn -0.904597 0.025600 0.425499
vn -0.833785 0.144697 0.532790
vn -0.776714 0.366407 0.512309
vn -0.878259 0.002600 0.478178
vn -0.912868 -0.065998 0.402886
vn -0.916018 -0.050001 0.398008
vn -0.832235 -0.095004 0.546223
vn -0.849423 0.020501 0.527314
vn -0.891436 0.027401 0.452318
vn -0.900320 0.043901 0.433009
vn -0.864120 0.092502 0.494712
vn -0.864120 0.092502 0.494712
vn -0.864120 0.092502 0.494712
vn -0.849423 0.020501 0.527314
vn -0.854621 -0.006400 0.519213
vn -0.895540 -0.007400 0.444920
vn -0.891436 0.027401 0.452318
vn -0.854621 -0.006400 0.519213
vn -0.854775 -0.003700 0.518985
vn -0.895500 -0.012000 0.444900
vn -0.895540 -0.007400 0.444920
vn -0.854775 -0.003700 0.518985
vn -0.850606 0.000100 0.525804
vn -0.879393 0.000000 0.476096
vn -0.899531 -0.006000 0.436815
vn -0.895500 -0.012000 0.444900
vn -0.903816 0.066601 0.422707
vn -0.904597 0.025600 0.425499
vn -0.951342 0.026301 0.307013
vn -0.903196 0.164399 0.396498
vn -0.904597 0.025600 0.425499
vn -0.916018 -0.050001 0.398008
vn -0.896097 -0.226699 0.381599
vn -0.951342 0.026301 0.307013
vn -0.916018 -0.050001 0.398008
vn -0.912868 -0.065998 0.402886
vn -0.884387 -0.093499 0.457293
vn -0.896097 -0.226699 0.381599
vn -0.912868 -0.065998 0.402886
vn -0.912346 0.000000 0.409420
vn -0.844067 -0.028499 0.535479
vn -0.884387 -0.093499 0.457293
vn -0.900320 0.043901 0.433009
vn -0.891436 0.027401 0.452318
vn -0.820679 -0.001900 0.571386
vn -0.844067 -0.028499 0.535479
vn -0.891436 0.027401 0.452318
vn -0.895540 -0.007400 0.444920
vn -0.809273 0.101597 0.578581
vn -0.820679 -0.001900 0.571386
vn -0.895540 -0.007400 0.444920
vn -0.895500 -0.012000 0.444900
vn -0.848287 0.132498 0.512692
vn -0.809273 0.101597 0.578581
vn -0.895500 -0.012000 0.444900
vn -0.899531 -0.006000 0.436815
vn -0.910596 0.000000 0.413298
vn -0.848287 0.132498 0.512692
vn -0.896097 -0.226699 0.381599
vn -0.884387 -0.093499 0.457293
vn -0.785837 -0.219610 0.578127
vn -0.884387 -0.093499 0.457293
vn -0.844067 -0.028499 0.535479
vn -0.792566 -0.070697 0.605674
vn -0.785837 -0.219610 0.578127
vn -0.844067 -0.028499 0.535479
vn -0.725220 -0.056202 0.686219
vn -0.792566 -0.070697 0.605674
vn -0.844067 -0.028499 0.535479
vn -0.820679 -0.001900 0.571386
vn -0.693278 -0.044799 0.719277
vn -0.725220 -0.056202 0.686219
vn -0.820679 -0.001900 0.571386
vn -0.809273 0.101597 0.578581
vn -0.671578 0.015299 0.740776
vn -0.693278 -0.044799 0.719277
vn -0.809273 0.101597 0.578581
vn -0.848287 0.132498 0.512692
vn -0.727792 0.313996 0.609693
vn -0.727792 0.313996 0.609693
vn -0.671578 0.015299 0.740776
s off
g mask3:Mesh
usemtl mask3:lambert2
f 1/1/1 11/2/2 2/3/3
f 2/3/4 11/2/5 12/4/6 3/5/7
f 3/5/8 12/4/9 13/6/10 4/7/11
f 4/7/12 13/6/13 14/8/14 5/9/15
f 5/9/16 14/8/17 6/10/18
f 6/10/19 14/8/20 15/11/21 7/12/22
f 7/12/23 15/11/24 16/13/25 8/14/26
f 8/14/27 16/13/28 17/15/29 9/16/30
f 9/16/31 17/15/32 18/17/33 102/18/34 10/19/35
f 1/1/36 126/20/37 120/21/38 127/22/39 20/23/40 21/24/41 11/2/42
f 11/2/43 21/24/44 22/25/45 12/4/46
f 12/4/47 22/25/48 23/26/49 13/6/50
f 13/6/51 23/26/52 24/27/53 109/28/54 14/8/55
f 14/8/56 107/29/57 25/30/58 15/11/59
f 15/11/60 25/30/61 26/31/62 16/13/63
f 16/13/64 26/31/65 27/32/66 17/15/67
f 17/15/68 27/32/69 28/33/70 18/17/71
f 18/17/72 28/33/73 19/34/74 103/35/75
f 20/23/76 29/36/77 30/37/78 21/24/79
f 21/24/80 30/37/81 31/38/82 22/25/83
f 22/25/84 31/38/85 32/39/86 23/26/87
f 23/26/88 32/39/89 33/40/90 108/41/91 24/27/92
f 25/30/93 119/42/94 53/43/95 118/44/96 35/45/97 36/46/98 26/31/99
f 26/31/100 36/46/101 37/47/102 27/32/103
f 27/32/104 37/47/105 38/48/106 28/33/107
f 28/33/108 38/48/109 39/49/110 104/50/111 19/34/112
f 30/37/113 40/51/114 41/52/115 31/38/116
f 31/38/117 41/52/118 42/53/119 32/39/120
f 32/39/121 42/53/122 43/54/123 33/40/124
f 33/40/125 43/54/126 34/55/127 116/56/128
f 35/45/129 117/57/130 34/55/131 44/58/132 36/46/133
f 36/46/134 44/58/135 45/59/136 37/47/137
f 37/47/138 45/59/139 46/60/140 38/48/141
f 38/48/142 46/60/143 105/61/144 39/49/145
f 42/53/146 47/62/147 43/54/148
f 43/54/149 47/62/150 48/63/151 34/55/152
f 34/55/153 48/63/154 49/64/155
f 34/55/156 49/64/157 50/65/158 44/58/159
f 44/58/160 50/65/161 51/66/162 45/59/163
f 45/59/164 51/66/165 52/67/166 106/68/167 46/60/168
f 1/1/169 2/3/170 54/69/171
f 2/3/172 3/5/173 55/70/174 54/69/175
f 3/5/176 4/7/177 56/71/178 55/70/179
f 4/7/180 5/9/181 57/72/182 56/71/183
f 5/9/184 6/10/185 57/72/186
f 6/10/187 7/12/188 58/73/189 57/72/190
f 7/12/191 8/14/192 59/74/193 58/73/194
f 8/14/195 9/16/196 60/75/197 59/74/198
f 9/16/199 10/19/200 101/76/201 61/77/202 60/75/203
f 1/1/204 54/69/205 64/78/206 63/79/207 125/80/208 121/81/209 124/82/210
f 54/69/211 55/70/212 65/83/213 64/78/214
f 55/70/215 56/71/216 66/84/217 65/83/218
f 56/71/219 57/72/220 114/85/221 67/86/222 66/84/223
f 57/72/224 58/73/225 68/87/226 110/88/227
f 58/73/228 59/74/229 69/89/230 68/87/231
f 59/74/232 60/75/233 70/90/234 69/89/235
f 60/75/236 61/77/237 71/91/238 70/90/239
f 61/77/240 100/92/241 62/93/242 71/91/243
f 63/79/244 64/78/245 73/94/246 122/95/247 72/96/248 123/97/249
f 64/78/250 65/83/251 74/98/252 73/94/253
f 65/83/254 66/84/255 75/99/256 74/98/257
f 66/84/258 67/86/259 113/100/260 76/101/261 75/99/262
f 68/87/263 69/89/264 79/102/265 78/103/266 111/104/267 96/105/268 112/106/269
f 69/89/270 70/90/271 80/107/272 79/102/273
f 70/90/274 71/91/275 81/108/276 80/107/277
f 71/91/278 62/93/279 99/109/280 82/110/281 81/108/282
f 73/94/283 74/98/284 84/111/285 83/112/286
f 74/98/287 75/99/288 85/113/289 84/111/290
f 75/99/291 76/101/292 86/114/293 85/113/294
f 76/101/295 115/115/296 77/116/297 86/114/298
f 78/103/299 79/102/300 87/117/301 77/116/302
f 79/102/303 80/107/304 88/118/305 87/117/306
f 80/107/307 81/108/308 89/119/309 88/118/310
f 81/108/311 82/110/312 98/120/313 89/119/314
f 85/113/315 86/114/316 90/121/317
f 86/114/318 77/116/319 91/122/320 90/121/321
f 77/116/322 92/123/323 91/122/324
f 77/116/325 87/117/326 93/124/327 92/123/328
f 87/117/329 88/118/330 94/125/331 93/124/332
f 88/118/333 89/119/334 97/126/335 95/127/336 94/125/337
